:FULLY-SPECIFIED
:FORCE-ALL-JOINTS-BE-3DOF
:DEGREES
2446
root 2.40889 15.1594 -23.7 944.348 82.4363 -132.498
lfemur -32.351 21.2703 -13.338
ltibia 70.3471 0 0
lfoot -24.6441 17.2655 0
ltoes -31.8548 0 0
rfemur -48.1337 -23.2772 11.9616
rtibia 49.6789 0 0
rfoot 18.4555 3.37362 0
rtoes 12.8594 0 0
lowerback 18.2786 1.03046 -2.93472
upperback 0.238152 1.26269 3.93504
thorax -10.2084 0.913404 5.66192
lowerneck 4.05119 -13.2499 -14.6644
upperneck 0.283588 -18.4419 13.9718
head 2.09239 -9.32397 5.962
lclavicle 7.26523e-15 2.1792e-14 0
lhumerus -16.0234 -68.5948 103.153
lradius 89.582 0 0
lwrist 51.3133 0 0
lhand -6.80283 406.409 0
lfingers 7.12502 0 0
lthumb 19.0616 -644.446 0
rclavicle 7.26523e-15 2.1792e-14 0
rhumerus 24.283 25.468 -61.8758
rradius 117.364 0 0
rwrist -19.6374 0 0
rhand -23.0459 -402.126 0
rfingers 7.12502 0 0
rthumb 3.40051 287.906 0
2447
root 2.45145 15.1254 -23.689 943.185 82.4826 -133.636
lfemur -32.2324 21.3667 -13.3751
ltibia 70.3908 0 0
lfoot -24.8353 17.2699 0
ltoes -31.8537 0 0
rfemur -48.3104 -23.4574 11.7966
rtibia 49.5573 0 0
rfoot 18.7132 3.73463 0
rtoes 13.1031 0 0
lowerback 18.2715 0.982998 -2.98539
upperback 0.232441 1.19188 3.95553
thorax -10.2088 0.883575 5.73149
lowerneck 4.09786 -13.2976 -14.7048
upperneck 0.282301 -18.5133 14.0109
head 2.09947 -9.36067 5.97623
lclavicle 7.32647e-15 2.17195e-14 0
lhumerus -16.3468 -68.81 103.337
lradius 89.633 0 0
lwrist 51.8572 0 0
lhand -6.39792 406.429 0
lfingers 7.12502 0 0
lthumb 19.4515 -644.441 0
rclavicle 7.32647e-15 2.17195e-14 0
rhumerus 24.1915 24.8804 -61.9178
rradius 117.063 0 0
rwrist -18.8571 0 0
rhand -23.3881 -402.35 0
rfingers 7.12502 0 0
rthumb 3.07072 287.67 0
2448
root 2.49401 15.0914 -23.678 942.234 82.5204 -134.568
lfemur -32.1369 21.446 -13.4048
ltibia 70.4307 0 0
lfoot -24.9935 17.2746 0
ltoes -31.8549 0 0
rfemur -48.4549 -23.6061 11.6617
rtibia 49.4621 0 0
rfoot 18.9172 4.02955 0
rtoes 13.3009 0 0
lowerback 18.265 0.944024 -3.02734
upperback 0.227226 1.13361 3.97201
thorax -10.2092 0.859037 5.78846
lowerneck 4.13576 -13.3367 -14.7379
upperneck 0.282021 -18.5719 14.0424
head 2.10552 -9.39078 5.98762
lclavicle 7.37678e-15 2.16525e-14 0
lhumerus -16.6212 -68.976 103.491
lradius 89.6804 0 0
lwrist 52.3087 0 0
lhand -6.06585 406.444 0
lfingers 7.12502 0 0
lthumb 19.7712 -644.438 0
rclavicle 7.37678e-15 2.16525e-14 0
rhumerus 24.1115 24.3903 -61.9541
rradius 116.809 0 0
rwrist -18.2047 0 0
rhand -23.671 -402.535 0
rfingers 7.12502 0 0
rthumb 2.79813 287.475 0
2449
root 2.53657 15.0574 -23.667 941.48 82.5503 -135.309
lfemur -32.0633 21.5095 -13.4273
ltibia 70.4685 0 0
lfoot -25.1218 17.2798 0
ltoes -31.8591 0 0
rfemur -48.5697 -23.7259 11.5546
rtibia 49.3929 0 0
rfoot 19.069 4.26297 0
rtoes 13.4556 0 0
lowerback 18.2589 0.912877 -3.06136
upperback 0.222287 1.08688 3.98464
thorax -10.2097 0.839364 5.83375
lowerneck 4.16545 -13.368 -14.7642
upperneck 0.282936 -18.6187 14.0664
head 2.1107 -9.41479 5.99628
lclavicle 7.41703e-15 2.1588e-14 0
lhumerus -16.8534 -69.0929 103.616
lradius 89.7265 0 0
lwrist 52.6767 0 0
lhand -5.80109 406.455 0
lfingers 7.12502 0 0
lthumb 20.0261 -644.438 0
rclavicle 7.41703e-15 2.1588e-14 0
rhumerus 24.0402 23.9873 -61.9855
rradius 116.597 0 0
rwrist -17.6663 0 0
rhand -23.8997 -402.683 0
rfingers 7.12502 0 0
rthumb 2.57769 287.32 0
